<svg width="100%" height="100%" id="svg" viewBox="0 0 1440 690" xmlns="http://www.w3.org/2000/svg" class="transition duration-300 ease-in-out delay-150"><path d="M 0,700 C 0,700 0,233 0,233 C 65.80505611049452,249.9114810704156 131.61011222098904,266.8229621408312 181,287 C 230.38988777901096,307.1770378591688 263.3646072265384,330.61963250709084 305,313 C 346.6353927734616,295.38036749290916 396.9314588728572,236.6985078308053 458,243 C 519.0685411271428,249.3014921691947 590.9095572820323,320.58633616968797 650,305 C 709.0904427179677,289.41366383031203 755.4303119990134,186.95614749044273 805,155 C 854.5696880009866,123.04385250955725 907.3691947219138,161.58907386854108 968,187 C 1028.6308052780862,212.41092613145892 1097.092909113331,224.68755703539284 1145,241 C 1192.907090886669,257.31244296460716 1220.2591688247626,277.66069798988775 1266,277 C 1311.7408311752374,276.33930201011225 1375.8704155876187,254.66965100505612 1440,233 C 1440,233 1440,700 1440,700 Z" stroke="none" stroke-width="0" fill="#6696ba" fill-opacity="0.53" class="transition-all duration-300 ease-in-out delay-150 path-0"></path><path d="M 0,700 C 0,700 0,466 0,466 C 41.48176100628929,490.2514736712295 82.96352201257858,514.502947342459 143,493 C 203.03647798742142,471.497052657541 281.6276729559749,404.23968430139354 335,402 C 388.3723270440251,399.76031569860646 416.52578616352196,462.53831545196704 471,486 C 525.474213836478,509.46168454803296 606.2691823899372,493.60705389073865 666,470 C 725.7308176100628,446.39294610926135 764.3974842767295,415.03346898507834 816,403 C 867.6025157232705,390.96653101492166 932.1408805031447,398.259070168948 989,423 C 1045.8591194968553,447.740929831052 1095.0389937106918,489.93025033912943 1143,487 C 1190.9610062893082,484.06974966087057 1237.703144654088,436.0199284745345 1287,425 C 1336.296855345912,413.9800715254655 1388.1484276729561,439.99003576273276 1440,466 C 1440,466 1440,700 1440,700 Z" stroke="none" stroke-width="0" fill="#6696ba" fill-opacity="1" class="transition-all duration-300 ease-in-out delay-150 path-1"></path></svg>